PathFileType	4	(X/Y/Z)	s10c0102.trc
DataRate	CameraRate	NumFrames	NumMarkers	Units	OrigDataRate	OrigDataStartFrame	OrigNumFrames
200	200	5	50	mm	200	750	2000
Frame#	Time	racr			lacr			c7			jug			rlel			rdr			llel			ldr			s2			lic			ric			lasi			rasi			rpsi			lpsi			rgt			lgt			rth1			rth2			rth3			rth4			rlfc			rmfc			rsh1			rsh2			rsh3			rsh4			rlmal			rmmal			rcal			rtoe			rmt5			lth1			lth2			lth4			lth3			llfc			lmfc			llmal			lmmal			lcal			lmt5			lsh1			lsh2			lsh3			lsh4			ltoe			SBIKE			LBIKE			RBIKE			
		X1	Y1	Z1	X2	Y2	Z2	X3	Y3	Z3	X4	Y4	Z4	X5	Y5	Z5	X6	Y6	Z6	X7	Y7	Z7	X8	Y8	Z8	X9	Y9	Z9	X10	Y10	Z10	X11	Y11	Z11	X12	Y12	Z12	X13	Y13	Z13	X14	Y14	Z14	X15	Y15	Z15	X16	Y16	Z16	X17	Y17	Z17	X18	Y18	Z18	X19	Y19	Z19	X20	Y20	Z20	X21	Y21	Z21	X22	Y22	Z22	X23	Y23	Z23	X24	Y24	Z24	X25	Y25	Z25	X26	Y26	Z26	X27	Y27	Z27	X28	Y28	Z28	X29	Y29	Z29	X30	Y30	Z30	X31	Y31	Z31	X32	Y32	Z32	X33	Y33	Z33	X34	Y34	Z34	X35	Y35	Z35	X36	Y36	Z36	X37	Y37	Z37	X38	Y38	Z38	X39	Y39	Z39	X40	Y40	Z40	X41	Y41	Z41	X42	Y42	Z42	X43	Y43	Z43	X44	Y44	Z44	X45	Y45	Z45	X46	Y46	Z46	X47	Y47	Z47	X48	Y48	Z48	X49	Y49	Z49	X50	Y50	Z50	
750	3.7500	380.410774	1271.718780	-19.331706	451.947401	1297.175719	-310.881257	373.418582	1327.336152	-185.599965	379.040601	1186.063395	-181.413608	451.506822	1014.770221	23.005104	636.158230	885.836327	-43.889954	512.172460	1062.459489	-461.928172	643.075741	886.052506	-410.209023	-119.498551	1093.886457	-251.403220	51.585940	1108.236710	-401.102578	40.602238	1139.802251	-109.547029	78.404057	1027.528313	-362.505414	55.819182	1062.205262	-112.214329	-88.507934	1158.490613	-202.554009	-73.401580	1153.677141	-313.735709	-39.965299	1049.634303	-46.224053	-51.085811	963.568701	-426.955898	86.431201	992.670146	-28.901505	172.791705	998.509387	-50.575358	250.230391	964.587752	-47.774839	174.649517	1030.731810	-69.193184	362.898609	941.696517	-74.334663	349.438956	914.891161	-199.312634	299.219625	847.141957	-43.628225	278.438234	761.002235	-50.306374	220.480357	697.495244	-48.449049	305.707064	747.733160	-74.250004	164.556608	593.929863	-58.026217	191.025654	603.069899	-138.478457	106.071106	587.575702	-104.931357	324.967813	479.787137	-106.572409	240.702789	487.708495	-44.131202	18.444067	854.044235	-445.827004	84.710909	798.508008	-434.629851	114.521743	820.396277	-428.103616	113.976328	715.210759	-425.059131	166.499104	620.213293	-404.948849	180.629180	612.811315	-287.694969	4.292279	279.266105	-381.817545	28.546715	276.829740	-304.742462	-48.511477	266.450133	-334.298822	91.744508	158.718943	-401.308906	88.678299	522.371644	-425.819020	86.388961	436.605566	-411.097441	38.278324	361.966773	-399.033409	118.494580	430.224869	-391.509966	180.816700	157.405779	-347.490558	-218.663012	833.190752	-214.674772	-104.045654	80.417577	-418.394445	-104.062294	80.548156	-18.368522	
751	3.7550	380.894216	1270.769120	-18.927522	452.654704	1296.582414	-308.910303	373.859224	1326.166229	-184.471994	379.182254	1184.886081	-180.423525	450.889298	1014.009460	23.952710	636.087282	885.666652	-43.869676	513.974562	1063.119766	-460.722373	643.380363	885.935729	-410.117075	-119.628728	1094.464966	-250.268874	51.387873	1108.148228	-400.746367	40.596449	1139.298379	-109.886339	77.882679	1027.287537	-362.639052	55.629021	1061.776767	-111.756279	-88.288116	1158.925130	-201.598073	-73.500897	1154.223697	-312.786768	-40.218329	1049.031507	-45.878057	-52.360266	963.873835	-426.443761	85.490682	991.665481	-28.929488	171.235678	995.578367	-51.253192	249.055221	961.363148	-47.461552	174.595883	1028.358735	-69.669022	362.189806	936.466343	-73.948890	347.038716	909.838982	-198.707483	299.108811	841.508772	-43.630250	279.676159	754.877313	-49.464292	222.560352	690.476426	-47.248612	306.858782	741.916628	-73.648027	168.010443	585.851587	-57.081947	193.864935	596.121952	-137.430918	108.842109	576.981116	-103.816240	332.585824	479.375745	-106.382643	247.939756	483.011260	-43.635077	17.602122	853.709439	-445.190670	84.925604	799.415259	-434.407962	114.462726	821.911928	-428.951467	115.965712	716.861750	-424.439587	169.502118	622.858598	-405.227459	186.659840	614.885156	-288.301727	-1.100896	286.004490	-381.570649	22.994227	282.664286	-304.563608	-54.143205	274.127144	-333.653960	83.306187	163.319276	-401.014813	89.882554	526.599682	-425.815775	85.483994	440.944963	-410.831473	35.645107	367.492852	-398.697210	117.332542	433.800556	-391.275220	172.150843	159.071678	-347.046116	-218.729013	833.282148	-214.822304	-104.059598	80.426878	-418.394141	-104.078424	80.552715	-18.369562	
752	3.7600	381.554476	1269.522238	-18.517308	453.386914	1295.835121	-307.074461	374.328548	1325.062951	-183.384145	379.425369	1183.522003	-179.237731	450.380921	1013.074370	24.857318	636.064892	885.423285	-43.837091	515.773983	1063.768311	-459.598313	643.584491	885.849459	-409.989690	-119.658838	1094.865183	-249.507158	51.198465	1107.968133	-400.370402	40.568443	1138.760535	-110.159404	77.312606	1026.969299	-362.717062	55.552428	1061.054623	-111.281693	-88.023728	1159.101584	-200.877798	-73.470684	1154.626843	-312.102957	-40.501844	1048.267614	-45.715043	-53.412263	964.072915	-425.884733	84.531319	989.925656	-28.896110	170.717035	992.604552	-50.785793	247.661743	957.045994	-47.135696	174.409024	1025.189753	-69.564198	361.307795	930.167226	-73.398950	344.781733	903.625117	-197.734167	298.937164	834.571961	-43.177292	280.645941	747.614791	-48.416851	224.259768	682.607625	-45.875668	307.754903	734.961433	-72.926458	171.125737	576.909812	-55.993154	196.169265	588.188052	-136.497285	112.148646	566.154985	-102.596748	339.620757	478.351930	-106.084886	255.019419	477.634814	-43.045102	16.786486	853.083046	-444.019789	85.314612	800.246702	-434.109119	114.505602	823.348628	-429.576148	118.200705	718.681569	-423.546180	173.802267	625.890588	-406.022741	192.410981	617.641602	-288.679133	-6.161112	293.170265	-381.316574	17.953752	289.030768	-304.438299	-59.359684	282.390272	-333.019775	75.167064	168.388796	-400.790734	91.585282	530.975198	-425.651056	84.843162	445.165891	-410.205225	33.261409	373.341360	-398.445013	116.373103	437.208334	-390.389176	163.841022	161.603903	-346.958983	-218.387885	833.197258	-214.741220	-104.057697	80.421561	-418.389165	-104.080004	80.543984	-18.365754	
753	3.7650	382.343568	1268.153702	-18.168840	453.992225	1295.020114	-305.344074	374.686000	1323.960741	-182.462201	379.477599	1182.180251	-178.133594	449.933359	1012.034818	25.810247	636.075452	885.181995	-43.842630	517.314433	1064.165481	-458.601473	643.730404	885.754498	-409.928243	-119.670281	1095.194037	-248.690851	50.989345	1107.764074	-400.045440	40.539361	1138.341198	-110.362115	76.895731	1026.660610	-362.786407	55.457370	1060.279365	-110.538892	-87.898117	1159.213591	-200.233278	-73.466824	1155.031876	-311.323308	-41.040237	1047.714060	-45.197873	-54.274128	964.096930	-425.331010	83.656140	987.208886	-29.179372	169.706337	988.633165	-50.342300	246.327268	951.880558	-46.250392	174.127011	1021.293735	-68.734398	360.554597	922.615140	-72.939455	342.681898	896.182393	-196.461276	298.696842	826.593357	-42.310417	281.346183	739.363035	-47.283795	225.605845	673.811646	-44.578093	308.390016	727.052378	-72.127825	173.840691	566.968977	-55.110547	198.585447	579.465948	-135.406589	114.828101	553.729776	-101.558219	346.129955	476.870073	-105.972660	262.128927	471.667591	-42.295569	16.241439	852.449051	-442.976398	85.917240	801.070013	-433.639567	114.673800	824.665465	-430.003116	120.662965	720.209585	-422.709211	177.799036	628.600518	-405.818741	198.337503	620.757176	-288.590114	-11.004988	300.506596	-381.054869	13.072754	295.531605	-304.297854	-64.523801	290.890224	-332.675227	67.306251	173.834256	-400.524876	93.671404	535.447985	-425.414862	84.660433	449.849683	-409.762344	31.149187	379.377222	-398.161676	115.906358	441.153396	-389.768864	155.879631	165.136109	-347.019096	-218.376972	833.178119	-214.713454	-104.031737	80.420047	-418.402490	-104.065944	80.537083	-18.367177	
754	3.7700	383.214828	1266.694884	-17.921273	454.628382	1294.047792	-303.758660	374.932624	1322.949483	-181.536956	379.523033	1181.136523	-177.130476	449.592064	1010.952823	26.775155	636.098128	884.792054	-43.877555	518.667628	1064.436233	-457.745408	643.781473	885.651849	-409.904782	-119.697321	1095.301285	-247.929260	50.723338	1107.506362	-399.701999	40.467317	1137.774188	-110.476867	76.547020	1026.339739	-362.847746	55.671728	1059.236755	-110.463419	-87.756680	1159.216048	-199.566848	-73.489503	1155.260516	-310.622107	-41.302155	1046.649564	-45.406175	-54.955908	963.937144	-424.745813	82.101766	983.347627	-29.429908	168.852478	983.807959	-49.547997	244.734900	945.652422	-45.526350	173.990778	1016.695744	-67.518136	359.234747	914.264363	-71.949548	340.646068	887.879581	-194.793231	298.371749	817.369884	-40.975240	281.813844	730.024998	-46.084864	226.608768	664.001214	-43.471220	308.696416	718.221081	-71.348899	176.539682	556.293335	-54.326862	201.153720	570.346659	-134.753408	117.677392	540.695856	-100.444169	351.977956	474.811502	-105.984944	268.525542	465.285408	-41.764372	15.910006	851.727359	-441.793356	86.585042	801.751384	-433.025208	114.923960	825.952264	-430.219025	123.024979	721.712911	-421.668181	181.954992	631.457363	-405.224198	204.014821	624.201795	-288.266404	-15.633539	308.210761	-380.791534	9.063130	302.131162	-304.188137	-69.456763	299.709994	-332.449353	59.760345	179.833950	-400.252814	96.153977	539.822728	-425.127161	84.722839	454.654274	-409.209607	29.231545	385.580897	-397.830510	115.524663	444.836042	-388.630959	148.083496	169.026877	-346.822733	-218.134178	832.980710	-214.409010	-104.027090	80.413987	-418.395723	-104.058639	80.519459	-18.364546	
